<svg width="24" height="24" viewBox="0 0 24 24" fill="none" xmlns="http://www.w3.org/2000/svg">
<path d="M20.9949 6.9C20.9783 6.73195 20.9193 6.57086 20.8235 6.43181C20.7276 6.29277 20.5981 6.18033 20.4469 6.105L12.4469 2.105C12.308 2.03548 12.1548 1.99928 11.9994 1.99928C11.8441 1.99928 11.6909 2.03548 11.5519 2.105L3.55194 6.105C3.40122 6.18075 3.27206 6.29334 3.17643 6.43231C3.08081 6.57129 3.02183 6.73215 3.00494 6.9C2.99394 7.007 2.04394 17.667 11.5939 21.914C11.7215 21.9716 11.8599 22.0014 11.9999 22.0014C12.1399 22.0014 12.2783 21.9716 12.4059 21.914C21.9559 17.667 21.0059 7.008 20.9949 6.9ZM11.9999 19.897V12H5.50994C5.12166 10.5783 4.93848 9.10848 4.96594 7.635L11.9999 4.118V12H18.4599C17.7009 14.74 15.9619 17.979 11.9999 19.897Z" fill="white"/>
</svg>
