<svg width="28" height="30" viewBox="0 0 28 30" fill="none" xmlns="http://www.w3.org/2000/svg">
<g filter="url(#filter0_d_57_529)">
<path d="M4.3438 15.271L6.3438 18.731C6.47658 18.9605 6.69507 19.1279 6.95123 19.1963C7.20739 19.2648 7.48024 19.2287 7.7098 19.096L9.1058 18.29C9.6858 18.747 10.3268 19.122 11.0008 19.402V21C11.0008 21.2652 11.1062 21.5196 11.2937 21.7071C11.4812 21.8946 11.7356 22 12.0008 22H16.0008C16.266 22 16.5204 21.8946 16.7079 21.7071C16.8954 21.5196 17.0008 21.2652 17.0008 21V19.402C17.6801 19.1192 18.3176 18.7451 18.8958 18.29L20.2918 19.096C20.7688 19.371 21.3828 19.206 21.6578 18.731L23.6578 15.271C23.7894 15.0412 23.8249 14.7687 23.7565 14.5129C23.6882 14.257 23.5215 14.0385 23.2928 13.905L21.9208 13.112C22.028 12.3745 22.0273 11.6253 21.9188 10.888L23.2908 10.095C23.7668 9.82 23.9318 9.205 23.6558 8.729L21.6558 5.269C21.523 5.0395 21.3045 4.87212 21.0484 4.80367C20.7922 4.73523 20.5194 4.77131 20.2898 4.904L18.8938 5.71C18.3163 5.25438 17.6791 4.88022 16.9998 4.598V3C16.9998 2.73478 16.8944 2.48043 16.7069 2.29289C16.5194 2.10536 16.265 2 15.9998 2H11.9998C11.7346 2 11.4802 2.10536 11.2927 2.29289C11.1052 2.48043 10.9998 2.73478 10.9998 3V4.598C10.3205 4.88081 9.68299 5.25492 9.1048 5.71L7.7098 4.904C7.59617 4.83817 7.47067 4.79539 7.34049 4.7781C7.21031 4.76082 7.07799 4.76937 6.95112 4.80327C6.82425 4.83717 6.7053 4.89576 6.60109 4.97567C6.49688 5.05559 6.40945 5.15526 6.3438 5.269L4.3438 8.729C4.21219 8.9588 4.1767 9.2313 4.24506 9.48715C4.31343 9.74299 4.4801 9.96147 4.7088 10.095L6.0808 10.888C5.97293 11.6254 5.97293 12.3746 6.0808 13.112L4.7088 13.905C4.2328 14.18 4.0678 14.795 4.3438 15.271ZM13.9998 8C16.2058 8 17.9998 9.794 17.9998 12C17.9998 14.206 16.2058 16 13.9998 16C11.7938 16 9.9998 14.206 9.9998 12C9.9998 9.794 11.7938 8 13.9998 8Z" fill="white"/>
</g>
<defs>
<filter id="filter0_d_57_529" x="-2" y="0" width="32" height="32" filterUnits="userSpaceOnUse" color-interpolation-filters="sRGB">
<feFlood flood-opacity="0" result="BackgroundImageFix"/>
<feColorMatrix in="SourceAlpha" type="matrix" values="0 0 0 0 0 0 0 0 0 0 0 0 0 0 0 0 0 0 127 0" result="hardAlpha"/>
<feOffset dy="4"/>
<feGaussianBlur stdDeviation="2"/>
<feComposite in2="hardAlpha" operator="out"/>
<feColorMatrix type="matrix" values="0 0 0 0 0 0 0 0 0 0 0 0 0 0 0 0 0 0 0.25 0"/>
<feBlend mode="normal" in2="BackgroundImageFix" result="effect1_dropShadow_57_529"/>
<feBlend mode="normal" in="SourceGraphic" in2="effect1_dropShadow_57_529" result="shape"/>
</filter>
</defs>
</svg>
